:FULLY-SPECIFIED
:FORCE-ALL-JOINTS-BE-3DOF
:DEGREES
2039
root -3.2616 15.2008 22.2781 898.213 -9.4014 173.349
lfemur -18.9858 11.2007 -23.5754
ltibia 58.0914 0 0
lfoot -24.1765 20.3124 0
ltoes -43.0345 0 0
rfemur -59.0102 -16.2216 20.3895
rtibia 73.6927 0 0
rfoot -4.24549 3.65812 0
rtoes -12.3921 0 0
lowerback 15.2812 -0.712294 -8.43546
upperback -0.528987 -2.36587 2.06426
thorax -8.7662 -0.731272 7.59158
lowerneck -2.49034 -3.48361 -6.21155
upperneck 6.98943 -4.58826 1.10356
head 2.85997 -2.4714 1.27697
lclavicle -2.22142e-14 5.725e-14 0
lhumerus -3.86194 -36.4375 87.1915
lradius 67.1106 0 0
lwrist -5.70146 0 0
lhand -24.8814 36.6743 0
lfingers 7.12502 0 0
lthumb 1.62611 -653.352 0
rclavicle -2.22142e-14 5.725e-14 0
rhumerus 2.39423 14.9971 -68.9401
rradius 118.473 0 0
rwrist -51.4195 0 0
rhand 56.3514 -388.932 0
rfingers 7.12502 0 0
rthumb 73.4281 351.385 0
2040
root -3.26541 15.2056 22.0939 897.863 -10.239 173.527
lfemur -18.7044 10.8067 -23.4843
ltibia 57.8235 0 0
lfoot -24.6691 20.8102 0
ltoes -43.1913 0 0
rfemur -58.5939 -16.2665 19.8363
rtibia 72.5746 0 0
rfoot -4.19658 3.55505 0
rtoes -11.4513 0 0
lowerback 15.1515 -0.581494 -8.35997
upperback -0.560002 -2.15297 2.19863
thorax -8.76456 -0.626372 7.64687
lowerneck -2.21055 -3.81038 -6.68754
upperneck 7.25919 -5.05479 1.24264
head 2.94148 -2.72548 1.39097
lclavicle 2.15681e-14 4.77083e-15 0
lhumerus -7.98949 -36.9553 90.255
lradius 70.0078 0 0
lwrist -3.7475 0 0
lhand -24.916 36.6698 0
lfingers 7.12502 0 0
lthumb 1.59269 -653.356 0
rclavicle 2.15681e-14 4.77083e-15 0
rhumerus 6.1242 12.9537 -68.5137
rradius 113.654 0 0
rwrist -51.9281 0 0
rhand 68.7745 -395.117 0
rfingers 7.12502 0 0
rthumb 74.0795 389.01 0
2041
root -3.27233 15.2092 21.9048 897.514 -10.9536 173.731
lfemur -18.3279 10.2795 -23.3623
ltibia 57.5581 0 0
lfoot -25.169 21.3153 0
ltoes -43.3745 0 0
rfemur -58.0892 -16.321 19.1655
rtibia 71.286 0 0
rfoot -4.13057 3.41596 0
rtoes -10.307 0 0
lowerback 14.8445 -0.438836 -8.15285
upperback -0.532614 -1.89101 2.26898
thorax -8.61271 -0.516754 7.53409
lowerneck -1.92782 -4.15302 -7.05193
upperneck 7.45086 -5.54498 1.34477
head 2.99486 -2.98709 1.47303
lclavicle -5.96354e-15 1.66979e-14 0
lhumerus -12.5502 -36.8548 93.4457
lradius 73.0844 0 0
lwrist -1.55401 0 0
lhand -24.0693 37.187 0
lfingers 7.12502 0 0
lthumb 2.41042 -652.847 0
rclavicle -5.96354e-15 1.66979e-14 0
rhumerus 10.0379 11.0551 -68.4497
rradius 107.974 0 0
rwrist -51.8759 0 0
rhand 77.5733 -405.361 0
rfingers 7.12502 0 0
rthumb 69.4846 401.951 0
2042
root -3.28162 15.2068 21.7152 897.114 -11.4771 173.989
lfemur -17.8662 9.63305 -23.2128
ltibia 57.2974 0 0
lfoot -25.6712 21.8228 0
ltoes -43.581 0 0
rfemur -57.5097 -16.3835 18.3953
rtibia 69.8552 0 0
rfoot -4.04889 3.24385 0
rtoes -8.98801 0 0
lowerback 14.5745 -0.248299 -7.82483
upperback -0.477313 -1.55162 2.32165
thorax -8.46736 -0.376232 7.31832
lowerneck -1.78362 -4.5135 -7.41086
upperneck 7.69028 -6.04796 1.42839
head 3.09333 -3.25561 1.54426
lclavicle 4.3832e-14 -2.54444e-14 0
lhumerus -17.5017 -36.2839 96.7191
lradius 76.3786 0 0
lwrist 1.79374 0 0
lhand -22.7786 37.9275 0
lfingers 7.12502 0 0
lthumb 3.65686 -652.124 0
rclavicle 4.3832e-14 -2.54444e-14 0
rhumerus 13.8845 9.39327 -68.5884
rradius 101.596 0 0
rwrist -50.6424 0 0
rhand 78.4714 -414.482 0
rfingers 7.12502 0 0
rthumb 68.87 394.552 0
2043
root -3.294 15.2028 21.5257 896.764 -11.9125 174.118
lfemur -17.3294 8.88137 -23.0389
ltibia 57.0438 0 0
lfoot -26.1711 22.3279 0
ltoes -43.8076 0 0
rfemur -56.8689 -16.4526 17.5436
rtibia 68.3107 0 0
rfoot -3.95297 3.04171 0
rtoes -7.5236 0 0
lowerback 14.2891 -0.0767466 -7.61554
upperback -0.499185 -1.26061 2.32717
thorax -8.38527 -0.246462 7.13237
lowerneck -1.56668 -4.78235 -7.65745
upperneck 8.03605 -6.44127 1.39008
head 3.20105 -3.47711 1.55965
lclavicle 1.23992e-14 -6.36111e-15 0
lhumerus -23.3376 -34.5856 100.129
lradius 80.2529 0 0
lwrist 6.75928 0 0
lhand -20.8828 38.7781 0
lfingers 7.12502 0 0
lthumb 5.48751 -651.313 0
rclavicle 1.23992e-14 -6.36111e-15 0
rhumerus 17.7056 8.08378 -68.8819
rradius 94.263 0 0
rwrist -47.2954 0 0
rhand 73.374 -415.757 0
rfingers 7.12502 0 0
rthumb 72.0524 381.994 0
2044
root -3.30855 15.1975 21.3299 896.378 -12.2025 174.276
lfemur -16.7274 8.03851 -22.8439
ltibia 56.7998 0 0
lfoot -26.6637 22.8257 0
ltoes -44.0512 0 0
rfemur -56.1804 -16.5269 16.6286
rtibia 66.681 0 0
rfoot -3.84422 2.81256 0
rtoes -5.9428 0 0
lowerback 13.9297 0.133994 -7.33748
upperback -0.464749 -0.90402 2.31158
thorax -8.2095 -0.095303 6.86806
lowerneck -1.55852 -5.0361 -7.87449
upperneck 8.51845 -6.79767 1.32082
head 3.39262 -3.68335 1.5538
lclavicle 2.16054e-14 -7.15625e-15 0
lhumerus -29.2393 -32.442 103.288
lradius 84.1918 0 0
lwrist 13.6697 0 0
lhand -19.6759 38.5954 0
lfingers 7.12502 0 0
lthumb 6.65268 -651.529 0
rclavicle 2.16054e-14 -7.15625e-15 0
rhumerus 21.5884 6.82992 -69.2959
rradius 85.6783 0 0
rwrist -40.6007 0 0
rhand 64.653 -409.445 0
rfingers 7.12502 0 0
rthumb 74.9316 360.085 0
2045
root -3.3255 15.1816 21.1391 896.036 -12.4569 174.315
lfemur -16.0703 7.11849 -22.6311
ltibia 56.5677 0 0
lfoot -27.1444 23.3114 0
ltoes -44.3089 0 0
rfemur -55.458 -16.6049 15.6685
rtibia 64.9943 0 0
rfoot -3.72408 2.55939 0
rtoes -4.27473 0 0
lowerback 13.6593 0.339061 -7.12
upperback -0.45209 -0.578564 2.22614
thorax -8.09943 0.0469064 6.57442
lowerneck -1.69976 -5.27686 -8.04638
upperneck 9.11175 -7.12763 1.25929
head 3.65083 -3.8776 1.53684
lclavicle 2.24583e-14 -3.18055e-15 0
lhumerus -35.4053 -29.6136 106.095
lradius 88.4515 0 0
lwrist 21.7724 0 0
lhand -18.9614 38.1456 0
lfingers 7.12502 0 0
lthumb 7.34242 -652.002 0
rclavicle 2.24583e-14 -3.18055e-15 0
rhumerus 25.5204 5.83148 -69.8061
rradius 76.0623 0 0
rwrist -31.0255 0 0
rhand 55.1302 -401.512 0
rfingers 7.12502 0 0
rthumb 72.8831 335.195 0
2046
root -3.33815 15.1603 20.9527 895.736 -12.7523 174.341
lfemur -15.3682 6.13535 -22.4036
ltibia 56.3499 0 0
lfoot -27.6084 23.7803 0
ltoes -44.5773 0 0
rfemur -54.7151 -16.6851 14.6811
rtibia 63.2793 0 0
rfoot -3.59396 2.28521 0
rtoes -2.54846 0 0
lowerback 13.4413 0.547677 -6.94353
upperback -0.451189 -0.263663 2.08847
thorax -8.02677 0.187293 6.25324
lowerneck -1.97405 -5.56441 -8.07695
upperneck 9.80588 -7.51132 1.12942
head 3.96592 -4.09841 1.46168
lclavicle 3.73964e-15 -2.46493e-14 0
lhumerus -41.5459 -26.5768 108.412
lradius 92.512 0 0
lwrist 30.3478 0 0
lhand -19.0824 35.411 0
lfingers 7.12502 0 0
lthumb 7.22564 -654.732 0
rclavicle 3.73964e-15 -2.46493e-14 0
rhumerus 29.4454 4.92055 -70.4457
rradius 65.3581 0 0
rwrist -19.5004 0 0
rhand 41.047 -393.861 0
rfingers 7.12502 0 0
rthumb 63.2572 316.304 0
2047
root -3.35855 15.1282 20.7562 895.344 -12.9026 174.161
lfemur -14.631 5.10311 -22.1649
ltibia 56.1488 0 0
lfoot -28.0509 24.2274 0
ltoes -44.8535 0 0
rfemur -53.9654 -16.7659 13.6848
rtibia 61.5643 0 0
rfoot -3.4553 1.99301 0
rtoes -0.7931 0 0
lowerback 13.264 0.838153 -6.90972
upperback -0.416764 0.12479 1.83445
thorax -7.94899 0.365234 5.8749
lowerneck -2.03581 -5.85725 -8.29028
upperneck 10.3616 -7.94503 1.39415
head 4.22907 -4.33103 1.55428
lclavicle 1.23992e-14 5.80451e-14 0
lhumerus -48.2081 -23.3306 110.407
lradius 96.6894 0 0
lwrist 39.3636 0 0
lhand -18.6119 36.2627 0
lfingers 7.12502 0 0
lthumb 7.67971 -653.897 0
rclavicle 1.23992e-14 5.80451e-14 0
rhumerus 33.7221 4.17094 -71.1022
rradius 53.5305 0 0
rwrist -7.11204 0 0
rhand 21.8009 -392.151 0
rfingers 7.12502 0 0
rthumb 46.2089 304.842 0
2048
root -3.37548 15.084 20.5618 894.709 -13.1837 173.94
lfemur -13.8687 4.03579 -21.918
ltibia 55.9668 0 0
lfoot -28.4671 24.648 0
ltoes -45.1344 0 0
rfemur -53.2225 -16.8461 12.6974
rtibia 59.8776 0 0
rfoot -3.30951 1.68581 0
rtoes 0.96226 0 0
lowerback 13.3073 1.14408 -6.95791
upperback -0.1936 0.491633 1.49589
thorax -7.78457 0.520394 5.45937
lowerneck -2.29942 -6.29804 -8.35458
upperneck 11.271 -8.58833 1.79748
head 4.19324 -4.63998 1.48409
lclavicle -2.40032e-14 -7.95139e-15 0
lhumerus -54.4568 -20.0357 111.71
lradius 100.258 0 0
lwrist 47.8513 0 0
lhand -18.3058 35.8059 0
lfingers 7.12502 0 0
lthumb 7.97519 -654.365 0
rclavicle -2.40032e-14 -7.95139e-15 0
rhumerus 38.4977 4.0736 -71.1196
rradius 40.7011 0 0
rwrist 5.10773 0 0
rhand -3.63498 -398.287 0
rfingers 7.12502 0 0
rthumb 22.1044 292.957 0
